<svg width="67.159447" height="91.242920" viewBox="0 0 67.1594 91.2429" fill="none" xmlns="http://www.w3.org/2000/svg" xmlns:xlink="http://www.w3.org/1999/xlink">
	<desc>
			Created with Pixso.
	</desc>
	<defs>
		<clipPath id="clip0_97">
			<rect id="Frame" width="67.159447" height="91.242943" fill="white" fill-opacity="0"/>
		</clipPath>
		<linearGradient id="paint_linear_0_99_0" x1="-0.000046" y1="12.165680" x2="62.036472" y2="96.818848" gradientUnits="userSpaceOnUse">
			<stop stop-color="#6CBCFC"/>
			<stop offset="1.000000" stop-color="#458DFC"/>
		</linearGradient>
		<linearGradient id="paint_linear_0_100_0" x1="-683.924255" y1="-42.863098" x2="-29.970242" y2="2.170593" gradientUnits="userSpaceOnUse">
			<stop stop-color="#B0F4FF"/>
			<stop offset="0.052549" stop-color="#A9F2FF"/>
			<stop offset="0.287900" stop-color="#8DE8FE"/>
			<stop offset="0.524700" stop-color="#79E1FD"/>
			<stop offset="0.761800" stop-color="#6DDDFC"/>
			<stop offset="1.000000" stop-color="#69DCFC"/>
		</linearGradient>
		<linearGradient id="paint_linear_0_101_0" x1="6.666183" y1="6.562004" x2="60.936501" y2="6.562004" gradientUnits="userSpaceOnUse">
			<stop stop-color="#B0F4FF"/>
			<stop offset="0.052549" stop-color="#A9F2FF"/>
			<stop offset="0.287900" stop-color="#8DE8FE"/>
			<stop offset="0.524700" stop-color="#79E1FD"/>
			<stop offset="0.761800" stop-color="#6DDDFC"/>
			<stop offset="1.000000" stop-color="#69DCFC"/>
		</linearGradient>
		<linearGradient id="paint_linear_0_104_0" x1="23.861679" y1="46.260422" x2="13.677200" y2="57.872002" gradientUnits="userSpaceOnUse">
			<stop stop-color="#6CBCFC"/>
			<stop offset="1.000000" stop-color="#458DFC"/>
		</linearGradient>
		<linearGradient id="paint_linear_0_105_0" x1="56.874817" y1="49.025230" x2="31.362600" y2="49.025230" gradientUnits="userSpaceOnUse">
			<stop stop-color="#6CBCFC"/>
			<stop offset="1.000000" stop-color="#458DFC"/>
		</linearGradient>
		<linearGradient id="paint_linear_0_106_0" x1="33.170586" y1="55.316879" x2="56.651474" y2="55.316879" gradientUnits="userSpaceOnUse">
			<stop stop-color="#6CBCFC"/>
			<stop offset="1.000000" stop-color="#458DFC"/>
		</linearGradient>
	</defs>
	<rect id="Frame" width="67.159447" height="91.242943" fill="#FFFFFF" fill-opacity="0"/>
	<g clip-path="url(#clip0_97)">
		<path id="Vector" d="M67.1594 28.4255L66.9513 71.1495L66.9166 79.4132C66.8819 85.9795 60.57 91.2772 52.8015 91.2429L13.9937 91.0714C6.24251 91.02 -0.0347209 85.6709 -4.00841e-05 79.0874L0.242726 28.0997C0.260066 22.785 4.42176 18.2931 10.1094 16.8015L10.1268 14.0585L10.1268 12.6526L57.4141 12.8755L57.3967 17.0244C63.067 18.5846 67.1767 23.0936 67.1594 28.4255Z" fill="url(#paint_linear_0_99_0)" fill-opacity="1.000000" fill-rule="nonzero"/>
		<path id="Vector" d="M60.9342 1.90308L60.9342 2.28027L60.8995 6.73779L60.8649 11.1096L60.8649 11.6411C60.8649 12.464 60.1712 13.1327 59.3389 13.1327L58.9747 13.1327L56.6858 13.1155L54.1714 13.0984L51.8825 13.0813L49.3682 13.0641L47.0445 13.0298L44.5302 13.0127L42.2412 12.9955L39.7095 12.9784L37.4033 12.9612L34.8889 12.9441L32.6 12.9098L30.0856 12.8927L27.7967 12.8755L25.265 12.8584L22.9587 12.8412L20.4617 12.8241L18.1727 12.8069L15.6584 12.7898L13.3521 12.7726L10.8377 12.7555L8.53146 12.7384L8.16731 12.7384C7.33497 12.7384 6.65869 12.0526 6.65869 11.2296L6.65869 11.2125L6.65869 10.8353L6.72805 2.02307L6.72805 1.49158C6.72805 0.668579 7.42167 0 8.27135 0L8.6355 0L13.4561 0.0343018L18.2768 0.0686035L20.583 0.0856934L23.0974 0.102905L25.3863 0.119995L30.1896 0.171387L32.704 0.188599L34.9929 0.205688L37.5073 0.2229L39.7962 0.23999L42.3106 0.257202L44.5995 0.274292L47.1139 0.291504L49.4028 0.308594L51.9519 0.342896L54.2408 0.359985L56.7552 0.377197L59.0614 0.394287L59.4256 0.394287C60.2753 0.411499 60.9342 1.08008 60.9342 1.90308Z" fill="url(#paint_linear_0_100_0)" fill-opacity="1.000000" fill-rule="nonzero"/>
		<path id="Vector" d="M60.9342 2.29724L60.8995 6.73767L60.8649 11.1095L58.8013 11.0924L56.0616 11.0752L53.5472 11.0581L50.7901 11.0581L48.2757 11.0409L45.5359 11.0238L43.0216 11.0067L40.2644 11.0067L37.7501 10.9895L34.9929 10.9724L32.4959 10.9552L29.7388 10.9552L27.2244 10.9381L24.4673 10.9209L21.9529 10.9038L19.2132 10.9038L16.6988 10.8866L13.9417 10.8695L11.4273 10.8524L8.68752 10.8524L6.65869 10.8352L6.72805 2.02295L11.5487 2.04004L16.8028 2.07434L19.3172 2.09155L22.0743 2.10864L24.5887 2.10864L29.8428 2.14294L32.6 2.16016L35.1143 2.16016L37.8715 2.17725L40.3685 2.19434L43.1256 2.21155L45.64 2.21155L48.3971 2.22864L50.8941 2.24585L53.6512 2.26294L56.1656 2.26294L58.9227 2.28015L60.9342 2.29724Z" fill="url(#paint_linear_0_101_0)" fill-opacity="1.000000" fill-rule="nonzero"/>
		<path id="Vector" d="M0.191833 37.1333L67.1085 37.4463L66.9683 66.7805L0.0515615 66.4675L0.191833 37.1333Z" fill="#F7F9FC" fill-opacity="1.000000" fill-rule="evenodd"/>
		<path id="Vector" d="M0.203613 37.1333L67.1203 37.4462L67.0951 42.7267L0.178371 42.4138L0.203613 37.1333Z" fill="#FBFCF7" fill-opacity="1.000000" fill-rule="evenodd"/>
		<path id="Vector" d="M26.288 48.928L21.9703 48.9108L21.9876 44.6246L16.0398 44.6075L16.0225 48.8765L11.7047 48.8594L11.67 54.7228L15.9878 54.74L15.9705 59.026L21.9182 59.0432L21.9356 54.7742L26.2533 54.7914L26.288 48.928Z" fill="url(#paint_linear_0_104_0)" fill-opacity="1.000000" fill-rule="nonzero"/>
		<path id="Vector" d="M55.628 50.351L34.2299 50.248C33.6577 50.248 33.1895 49.7852 33.1895 49.2194L33.1895 48.7394C33.1895 48.1736 33.6577 47.7107 34.2299 47.7107L55.628 47.8136C56.2003 47.8136 56.6684 48.2765 56.6684 48.8423L56.6684 49.3223C56.6684 49.8881 56.2003 50.351 55.628 50.351Z" fill="url(#paint_linear_0_105_0)" fill-opacity="1.000000" fill-rule="nonzero"/>
		<g opacity="0.500000">
			<path id="Vector" d="M55.6107 56.6429L34.2126 56.54C33.6404 56.54 33.1722 56.0771 33.1722 55.5114L33.1722 55.0314C33.1722 54.4656 33.6404 54.0027 34.2126 54.0027L55.6107 54.1056C56.1829 54.1056 56.6511 54.5685 56.6511 55.1343L56.6511 55.6143C56.6511 56.1801 56.1829 56.6429 55.6107 56.6429Z" fill="url(#paint_linear_0_106_0)" fill-opacity="1.000000" fill-rule="nonzero"/>
		</g>
		<g opacity="0.080000">
			<path id="Vector" d="M6.65869 1.90295L6.65869 2.28015L6.69337 6.73779L6.72805 11.0924L6.72805 11.6239C6.72805 12.4469 7.42167 13.1155 8.25401 13.1155L8.61816 13.1155L10.9244 13.0984L13.4388 13.0812L15.7277 13.0641L18.2421 13.0469L20.531 13.0298L23.0454 13.0126L25.3343 12.9955L27.8487 12.9784L30.155 12.9612L32.6693 12.9441L34.9583 12.9269L37.4726 12.9098L39.7616 12.8926L42.2759 12.8755L44.5822 12.8583L47.0966 12.8412L49.3855 12.8241L51.8998 12.8069L54.1888 12.7898L56.7031 12.7726L59.0094 12.7555L59.3736 12.7555C60.2059 12.7555 60.8822 12.0697 60.8822 11.2467L60.8822 11.2296L60.8822 10.8524C34.0566 12.0011 8.16731 0.394287 8.16731 0.394287C7.33497 0.411377 6.65869 1.08008 6.65869 1.90295Z" fill="#1A6FB5" fill-opacity="1.000000" fill-rule="nonzero"/>
		</g>
	</g>
</svg>
