<svg width="84.285713" height="74.966797" viewBox="0 0 84.2857 74.9668" fill="none" xmlns="http://www.w3.org/2000/svg" xmlns:xlink="http://www.w3.org/1999/xlink">
	<desc>
			Created with Pixso.
	</desc>
	<defs>
		<clipPath id="clip0_155">
			<rect id="Frame" width="84.285713" height="74.966820" fill="white" fill-opacity="0"/>
		</clipPath>
		<linearGradient id="paint_linear_0_156_0" x1="13.970089" y1="44.845966" x2="70.034050" y2="44.845966" gradientUnits="userSpaceOnUse">
			<stop stop-color="#B0F4FF"/>
			<stop offset="1.000000" stop-color="#69DCFC"/>
		</linearGradient>
		<linearGradient id="paint_linear_0_157_0" x1="-0.000038" y1="44.855423" x2="13.970036" y2="44.855423" gradientUnits="userSpaceOnUse">
			<stop stop-color="#6CBCFC"/>
			<stop offset="1.000000" stop-color="#458DFC"/>
		</linearGradient>
		<linearGradient id="paint_linear_0_161_0" x1="22.120949" y1="7.383953" x2="61.206577" y2="7.383953" gradientUnits="userSpaceOnUse">
			<stop stop-color="#6CBCFC"/>
			<stop offset="1.000000" stop-color="#458DFC"/>
		</linearGradient>
		<linearGradient id="paint_linear_0_162_0" x1="70.029419" y1="44.849449" x2="84.286499" y2="44.849449" gradientUnits="userSpaceOnUse">
			<stop stop-color="#6CBCFC"/>
			<stop offset="1.000000" stop-color="#458DFC"/>
		</linearGradient>
		<linearGradient id="paint_linear_0_164_0" x1="28.832649" y1="44.859234" x2="55.449371" y2="44.859234" gradientUnits="userSpaceOnUse">
			<stop stop-color="#6CBCFC"/>
			<stop offset="1.000000" stop-color="#458DFC"/>
		</linearGradient>
	</defs>
	<rect id="Frame" width="84.285713" height="74.966820" fill="#FFFFFF" fill-opacity="0"/>
	<g clip-path="url(#clip0_155)">
		<path id="Vector" d="M13.9687 14.7614L70.0367 14.7614L70.0367 74.9377L13.9687 74.9377L13.9687 14.7614Z" fill="url(#paint_linear_0_156_0)" fill-opacity="1.000000" fill-rule="evenodd"/>
		<path id="Vector" d="M13.7366 14.7614C13.8043 14.7614 13.872 14.7903 13.9686 14.8193C13.9686 34.8395 13.9686 54.8596 13.9686 74.9088C9.6282 75.2471 5.96444 74.1548 3.0547 71.3513C0.995653 69.36 -3.76701e-05 67.0206 -3.76701e-05 64.3718C-3.76701e-05 54.995 -3.76701e-05 45.6277 -3.76701e-05 36.2509C-3.76701e-05 32.6741 -0.00970459 29.0973 -0.00970459 25.5206C-0.00970459 21.1995 2.32002 18.0577 6.60246 15.931C8.80651 14.8483 11.2522 14.684 13.7366 14.7614Z" fill="url(#paint_linear_0_157_0)" fill-opacity="1.000000" fill-rule="nonzero"/>
		<path id="Vector" d="M60.2441 14.7517C62.7478 14.7517 62.9992 14.7517 65.4932 14.7517C65.4932 34.8395 65.4932 54.8596 65.4932 74.9185C48.4698 74.9185 35.5935 74.9185 18.5121 74.9185C18.5121 54.8694 18.5121 34.8491 18.5121 14.771C21.0061 14.771 21.5475 14.771 24.0899 14.771C24.0899 14.5197 24.0899 14.3263 24.0899 14.1427C24.0899 11.9869 24.0996 9.82153 24.0802 7.66589C24.0609 6.15784 24.4669 4.84314 25.6463 3.81848C26.4776 3.10303 27.4346 2.73572 28.5173 2.73572C31.8717 2.72607 35.2165 2.72607 38.5709 2.72607C44.2067 2.72607 49.8522 2.73572 55.488 2.72607C56.967 2.72607 58.1947 3.20947 59.1614 4.33081C59.9348 5.22986 60.2248 6.28345 60.2248 7.46289C60.2151 9.73462 60.2248 12.0063 60.2248 14.2781C60.2151 14.4037 60.2248 14.5487 60.2441 14.7517ZM30.1414 14.7517C30.3734 14.7517 30.5474 14.7517 30.7214 14.7517C33.3894 14.7517 36.0672 14.7517 38.7352 14.7517C43.7234 14.7517 48.7211 14.7517 53.7093 14.7614C54.1056 14.7614 54.1926 14.6357 54.1926 14.2587C54.1733 12.567 54.1926 10.8752 54.1926 9.18359C54.1926 9.04822 54.1733 8.91284 54.154 8.76794C46.1304 8.76794 38.1552 8.76794 30.1414 8.76794C30.1414 10.7593 30.1414 12.712 30.1414 14.7517Z" fill="#FFFFFF" fill-opacity="1.000000" fill-rule="nonzero"/>
		<mask id="mask0_160" mask-type="alpha" maskUnits="userSpaceOnUse" x="18.512085" y="2.726074" width="46.981140" height="72.192383">
			<path id="Vector" d="M60.2441 14.7517C62.7478 14.7517 62.9992 14.7517 65.4932 14.7517C65.4932 34.8395 65.4932 54.8596 65.4932 74.9185C48.4698 74.9185 35.5935 74.9185 18.5121 74.9185C18.5121 54.8693 18.5121 34.8491 18.5121 14.771C21.0061 14.771 21.5475 14.771 24.0899 14.771C24.0899 14.5197 24.0899 14.3263 24.0899 14.1427C24.0899 11.9869 24.0996 9.82153 24.0802 7.66589C24.0609 6.15784 24.4669 4.84314 25.6463 3.81848C26.4776 3.10303 27.4346 2.73572 28.5173 2.73572C31.8717 2.72607 35.2165 2.72607 38.5709 2.72607C44.2067 2.72607 49.8522 2.73572 55.488 2.72607C56.967 2.72607 58.1947 3.20947 59.1614 4.33081C59.9348 5.22986 60.2248 6.28345 60.2248 7.46289C60.2151 9.73462 60.2248 12.0063 60.2248 14.2781C60.2151 14.4037 60.2248 14.5487 60.2441 14.7517ZM30.1414 14.7517C30.3734 14.7517 30.5474 14.7517 30.7214 14.7517C33.3894 14.7517 36.0672 14.7517 38.7352 14.7517C43.7234 14.7517 48.7211 14.7517 53.7093 14.7614C54.1056 14.7614 54.1926 14.6357 54.1926 14.2587C54.1733 12.567 54.1926 10.8752 54.1926 9.18359C54.1926 9.04822 54.1733 8.91284 54.1539 8.76794C46.1304 8.76794 38.1552 8.76794 30.1414 8.76794C30.1414 10.7593 30.1414 12.712 30.1414 14.7517Z" fill="#F7F9FC" fill-opacity="1.000000" fill-rule="nonzero"/>
		</mask>
		<g mask="url(#mask0_160)">
			<path id="Vector" d="M22.125 0L61.2083 0L61.2083 14.771L22.125 14.771L22.125 0Z" fill="url(#paint_linear_0_161_0)" fill-opacity="1.000000" fill-rule="evenodd"/>
		</g>
		<path id="Vector" d="M84.2857 25.366C84.2857 21.3832 82.1107 18.4154 78.2439 16.2596C75.8659 14.9353 73.1688 14.684 70.404 14.7419C69.9787 14.7517 70.0367 14.974 70.0367 15.2061C70.0367 22.1661 70.0367 29.1167 70.0367 36.0769C70.0367 48.3055 70.0367 60.5244 70.027 72.7531C70.027 73.4587 70.027 74.1644 70.027 74.9281C71.7671 74.9861 73.4201 74.9958 75.0442 74.6091C80.535 73.3137 84.2761 69.2246 84.2761 64.4009C84.2954 51.3989 84.2857 38.3776 84.2857 25.366Z" fill="url(#paint_linear_0_162_0)" fill-opacity="1.000000" fill-rule="nonzero"/>
		<path id="Vector" d="M46.5848 49.2915C46.5848 50.5386 46.5848 51.7179 46.5848 52.907C46.5848 54.2506 46.5848 55.5944 46.5848 56.9283C46.5848 57.7307 46.1788 58.156 45.3861 58.156C43.2014 58.1658 41.0167 58.1658 38.832 58.156C38.1069 58.156 37.7009 57.7018 37.7009 56.938C37.7009 54.5406 37.7009 52.1433 37.7009 49.7458C37.7009 49.6105 37.7009 49.4656 37.7009 49.2915C37.5173 49.2915 37.3819 49.2915 37.2369 49.2915C34.8782 49.2915 32.5098 49.2915 30.1511 49.2915C29.2134 49.2915 28.8267 48.9146 28.8267 47.9768C28.8267 45.8984 28.8267 43.8201 28.8267 41.7417C28.8267 40.7943 29.2037 40.4174 30.1414 40.4174C32.4905 40.4174 34.8395 40.4174 37.1886 40.4174C37.3433 40.4174 37.4883 40.4174 37.6913 40.4174C37.6913 40.2627 37.6913 40.137 37.6913 40.0114C37.6913 37.6139 37.6913 35.2166 37.6913 32.8191C37.6913 31.9298 38.0876 31.5431 38.977 31.5431C41.0554 31.5431 43.1337 31.5431 45.2121 31.5431C46.1885 31.5431 46.5655 31.9104 46.5655 32.9061C46.5752 35.2842 46.5655 37.6526 46.5655 40.0306C46.5655 40.1466 46.5655 40.2627 46.5655 40.427C46.7202 40.427 46.8555 40.427 46.9812 40.427C49.3786 40.427 51.7759 40.427 54.1733 40.4366C55.053 40.4366 55.43 40.8234 55.43 41.703C55.43 43.791 55.43 45.8792 55.43 47.9672C55.43 48.9242 55.0627 49.2915 54.125 49.2915C51.7373 49.2915 49.3496 49.2915 46.9715 49.3011C46.8748 49.2915 46.7588 49.2915 46.5848 49.2915Z" fill="url(#paint_linear_0_164_0)" fill-opacity="1.000000" fill-rule="nonzero"/>
	</g>
</svg>
